<svg width="151" height="88" viewBox="0 0 151 88" fill="none" xmlns="http://www.w3.org/2000/svg">
<g opacity="0.32">
<path d="M111.324 58.3284V64.8284L43.9043 25.8984V19.3984L111.324 58.3284Z" fill="#CCCCCC"/>
<path d="M111.324 58.3297L111.334 64.8297L144.934 45.4297V38.9297L111.324 58.3297Z" fill="#E6E6E6"/>
<g opacity="0.7">
<path d="M77.5043 0L43.9043 19.4L111.324 58.33L144.934 38.93L77.5043 0Z" fill="#F2F7F9"/>
</g>
<path d="M38.0551 2.25781L4.45508 21.6578L71.8751 60.5878L105.485 41.1878L38.0551 2.25781Z" fill="#007E75"/>
<path d="M71.875 60.5875V87.6075L105.485 68.2075V41.1875L71.875 60.5875Z" fill="#E6E6E6"/>
<path d="M71.8751 60.5863V87.6062L4.45508 48.6762V21.6562L71.8751 60.5863Z" fill="#CCCCCC"/>
<path d="M49.1952 26.5182C59.1752 31.8882 69.1582 37.2582 79.1452 42.6282C80.0452 43.1082 79.8252 44.0982 78.6552 44.8182L68.8052 50.8882C67.6872 51.6092 66.2972 51.7682 65.0452 51.3182C64.1452 50.8382 64.3652 49.8482 65.5352 49.1282L73.2652 44.3682L67.4352 41.2282L59.7152 45.9982C58.5972 46.7192 57.2072 46.8782 55.9552 46.4282C55.0552 45.9482 55.2752 44.9582 56.4452 44.2382L64.1752 39.4782L44.9652 29.1382L43.9652 29.7482C41.8702 31.0012 39.5312 31.7882 37.1052 32.0582C35.0162 32.3872 32.8762 32.1022 30.9452 31.2382C29.5732 30.6732 28.8002 29.2102 29.1052 27.7582C29.4152 26.3782 30.6152 24.8982 32.6352 23.6582L38.8852 19.8082C40.9772 18.5572 43.3132 17.7692 45.7352 17.4982C47.8282 17.1592 49.9742 17.4442 51.9052 18.3182C53.2822 18.8782 54.0582 20.3452 53.7452 21.7982C53.4352 23.1682 52.2352 24.6482 50.2052 25.8982L49.2052 26.5182H49.1952ZM47.6352 20.9382C46.8202 20.5732 45.9162 20.4552 45.0352 20.5982C44.0142 20.7122 43.0282 21.0432 42.1452 21.5682L35.8952 25.4182C35.1912 25.7812 34.6542 26.4002 34.3952 27.1482C34.2662 27.7622 34.5942 28.3802 35.1752 28.6182C35.9902 28.9812 36.8932 29.1032 37.7752 28.9682C38.7972 28.8502 39.7822 28.5162 40.6652 27.9882L46.9152 24.1382C47.6182 23.7782 48.1532 23.1572 48.4052 22.4082C48.5352 21.7972 48.2122 21.1792 47.6352 20.9382Z" fill="#06534D"/>
<path d="M79.1458 42.626C79.9358 43.046 79.8658 43.856 79.0458 44.536L49.1958 28.476V26.516L79.1458 42.626ZM34.3758 29.366V27.486C34.4168 27.986 34.7278 28.423 35.1858 28.626C36.0008 28.989 36.9038 29.111 37.7858 28.976C38.8778 28.852 39.9268 28.483 40.8558 27.896L44.4058 25.706L44.4358 25.686C45.4378 25.132 46.4088 24.525 47.3458 23.866C47.8778 23.511 48.2608 22.974 48.4258 22.356V23.896C48.4538 24.062 48.4468 24.233 48.4058 24.396C48.1508 25.143 47.6168 25.763 46.9158 26.126L40.6658 29.976C39.7808 30.5 38.7968 30.834 37.7758 30.956C36.8938 31.096 35.9898 30.974 35.1758 30.606C34.6858 30.398 34.3668 29.918 34.3658 29.386L34.3758 29.366ZM65.1458 51.376C65.1158 51.356 65.0758 51.346 65.0458 51.326C64.1458 50.846 64.3658 49.856 65.5358 49.136L73.2658 44.376V46.336L65.5358 51.096C65.3998 51.181 65.2698 51.275 65.1458 51.376ZM56.0558 46.486C56.0258 46.466 55.9858 46.456 55.9558 46.436C55.0558 45.956 55.2758 44.966 56.4458 44.246L60.5378 41.726L64.1758 39.486V41.446L56.4458 46.206C56.3088 46.289 56.1778 46.382 56.0558 46.486ZM29.1958 29.406C29.0048 28.88 28.9738 28.31 29.1058 27.766C29.4158 26.386 30.6158 24.906 32.6358 23.666L38.8858 19.816C40.9778 18.565 43.3138 17.777 45.7358 17.506C47.8288 17.167 49.9748 17.452 51.9058 18.326C53.2828 18.886 54.0588 20.353 53.7458 21.806C53.7248 21.915 53.6948 22.022 53.6558 22.126C53.3228 21.313 52.6988 20.653 51.9058 20.276C49.9728 19.407 47.8288 19.122 45.7358 19.456C43.3138 19.727 40.9778 20.515 38.8858 21.766L32.6358 25.616C31.0858 26.439 29.8698 27.775 29.1958 29.396V29.406Z" fill="#006C64"/>
<path d="M4.45508 21.6578L8.67508 24.0978L38.0551 7.12781V2.25781L4.45508 21.6578Z" fill="#06534D"/>
<path d="M105.485 41.1878L101.255 43.6278L38.0547 7.12781V2.25781L105.485 41.1878Z" fill="#006C64"/>
<path d="M47.6353 20.9395C47.5673 20.9025 47.4973 20.8685 47.4253 20.8395C47.8933 21.1135 48.1283 21.6615 48.0053 22.1895C47.7503 22.9365 47.2163 23.5565 46.5153 23.9195L40.2653 27.7695C39.3803 28.2935 38.3963 28.6275 37.3753 28.7495C36.5733 28.8695 35.7543 28.7835 34.9953 28.4995C35.0553 28.5415 35.1183 28.5785 35.1853 28.6095C36.0003 28.9725 36.9033 29.0945 37.7853 28.9595C38.8073 28.8415 39.7923 28.5075 40.6753 27.9795L46.9253 24.1295C47.6283 23.7695 48.1633 23.1485 48.4153 22.3995C48.5453 21.7885 48.2223 21.1705 47.6453 20.9295L47.6353 20.9395ZM64.8553 51.1995C64.7793 51.1725 64.7053 51.1385 64.6353 51.0995C63.7353 50.6195 63.9553 49.6295 65.1253 48.9095L72.8553 44.1495L73.2553 44.3695L65.5253 49.1295C64.4453 49.7995 64.1753 50.6895 64.8453 51.1995H64.8553ZM55.7553 46.3095C55.6793 46.2825 55.6053 46.2485 55.5353 46.2095C54.6353 45.7295 54.8553 44.7395 56.0253 44.0195L63.7553 39.2595L64.1553 39.4795L56.4253 44.2395C55.3453 44.9095 55.0753 45.7995 55.7453 46.3095H55.7553ZM30.7353 31.1295C30.6633 31.0965 30.5933 31.0605 30.5253 31.0195C29.1533 30.4545 28.3803 28.9915 28.6853 27.5395C28.9953 26.1595 30.1953 24.6795 32.2153 23.4395L38.4653 19.5895C40.5573 18.3385 42.8933 17.5505 45.3153 17.2795C47.4083 16.9405 49.5543 17.2255 51.4853 18.0995L51.6853 18.2095C49.8003 17.4345 47.7393 17.1885 45.7253 17.4995C43.3033 17.7705 40.9673 18.5585 38.8753 19.8095L32.6253 23.6595C30.6053 24.8995 29.4053 26.3795 29.0953 27.7595C28.7913 29.1275 29.4713 30.5245 30.7353 31.1295Z" fill="#12B2A7"/>
</g>
<g opacity="0.41">
<path d="M5 23.5H146C148.761 23.5 151 25.739 151 28.5V60.5C151 63.261 148.761 65.5 146 65.5H5C2.239 65.5 0 63.261 0 60.5V28.5C0 25.739 2.239 23.5 5 23.5Z" fill="#9E9E9E"/>
<path d="M5 24H146C148.485 24 150.5 26.015 150.5 28.5V60.5C150.5 62.985 148.485 65 146 65H5C2.515 65 0.5 62.985 0.5 60.5V28.5C0.5 26.015 2.515 24 5 24Z" fill="#9E9E9E"/>
</g>
<path d="M10 30.5H142C143.657 30.5 145 31.843 145 33.5V55.5C145 57.157 143.657 58.5 142 58.5H10C8.343 58.5 7 57.157 7 55.5V33.5C7 31.843 8.343 30.5 10 30.5Z" fill="#F8F8FB"/>
<path d="M10 31H142C143.381 31 144.5 32.119 144.5 33.5V55.5C144.5 56.881 143.381 58 142 58H10C8.619 58 7.5 56.881 7.5 55.5V33.5C7.5 32.119 8.619 31 10 31Z" stroke="#E4E6EA"/>
<path d="M27.4556 41.5716H26.7466V40.1506C26.7466 38.1896 25.1566 36.6016 23.1956 36.6016C21.2356 36.6016 19.6466 38.1906 19.6466 40.1506V41.5706H18.9356C18.1516 41.5726 17.5176 42.2076 17.5156 42.9916V50.0916C17.5176 50.8746 18.1526 51.5096 18.9356 51.5116H27.4556C28.2386 51.5096 28.8736 50.8746 28.8756 50.0916V42.9916C28.8736 42.2086 28.2386 41.5736 27.4556 41.5716ZM23.1966 47.9626C22.4126 47.9626 21.7766 47.3266 21.7766 46.5426C21.7766 45.7586 22.4126 45.1226 23.1966 45.1226C23.9806 45.1226 24.6166 45.7586 24.6166 46.5426C24.6136 47.3256 23.9796 47.9596 23.1966 47.9616V47.9626ZM25.3966 41.5716H20.9966V40.1506C20.9966 38.9356 21.9816 37.9506 23.1966 37.9506C24.4116 37.9506 25.3966 38.9356 25.3966 40.1506V41.5716Z" fill="#007E75"/>
<path d="M47.4115 50.0813L45.3015 48.5592L47.3425 44.9583L43.6055 43.2663L44.4005 40.7812L48.4135 41.6112L48.8635 37.5312H51.5255L51.9755 41.6462L55.9525 40.7812L56.7835 43.2713L53.0485 44.9623L55.0895 48.5613L52.9795 50.0813L50.2125 47.0033L47.4115 50.0813Z" fill="#657991"/>
<path d="M67.4115 50.0813L65.3015 48.5592L67.3425 44.9583L63.6055 43.2663L64.4005 40.7812L68.4135 41.6112L68.8635 37.5312H71.5255L71.9755 41.6462L75.9525 40.7812L76.7835 43.2713L73.0485 44.9623L75.0895 48.5613L72.9795 50.0813L70.2125 47.0033L67.4115 50.0813Z" fill="#657991"/>
<path d="M87.4115 50.0813L85.3015 48.5592L87.3425 44.9583L83.6055 43.2663L84.4005 40.7812L88.4135 41.6112L88.8635 37.5312H91.5255L91.9755 41.6462L95.9525 40.7812L96.7835 43.2713L93.0485 44.9623L95.0895 48.5613L92.9795 50.0813L90.2125 47.0033L87.4115 50.0813Z" fill="#657991"/>
<path d="M107.411 50.0813L105.301 48.5592L107.342 44.9583L103.605 43.2663L104.4 40.7812L108.413 41.6112L108.863 37.5312H111.525L111.975 41.6462L115.952 40.7812L116.783 43.2713L113.048 44.9623L115.089 48.5613L112.979 50.0813L110.212 47.0033L107.411 50.0813Z" fill="#657991"/>
<path d="M127.411 50.0813L125.301 48.5592L127.342 44.9583L123.605 43.2663L124.4 40.7812L128.413 41.6112L128.863 37.5312H131.525L131.975 41.6462L135.952 40.7812L136.783 43.2713L133.048 44.9623L135.089 48.5613L132.979 50.0813L130.212 47.0033L127.411 50.0813Z" fill="#657991"/>
</svg>
